<svg id="visual" viewBox="0 0 1400 900" width="1400" height="900" xmlns="http://www.w3.org/2000/svg" xmlns:xlink="http://www.w3.org/1999/xlink" version="1.1"><g><g transform="translate(1234 464)"><path d="M87 -32C97.3 3.5 79.6 44.4 49.3 66C18.9 87.6 -24 89.9 -52 70C-80 50 -93 7.8 -81.8 -28.9C-70.6 -65.6 -35.3 -96.7 1.5 -97.2C38.3 -97.7 76.6 -67.5 87 -32Z" stroke="#4495FA" fill="none" stroke-width="20"></path></g><g transform="translate(76 329)"><path d="M46.8 -14.4C53.5 5.5 47 30.6 30.6 42.5C14.3 54.4 -11.8 53.3 -29.1 40.5C-46.5 27.8 -55.1 3.6 -48.8 -15.8C-42.5 -35.2 -21.3 -49.6 -0.6 -49.4C20 -49.2 40.1 -34.4 46.8 -14.4Z" stroke="#4495FA" fill="none" stroke-width="20"></path></g><g transform="translate(32 713)"><path d="M84.2 -25.3C94.9 5.6 79.6 47 49.8 68.7C19.9 90.4 -24.4 92.5 -51.9 72.3C-79.5 52 -90.3 9.6 -78.9 -22.3C-67.4 -54.2 -33.7 -75.5 1.5 -76C36.7 -76.5 73.5 -56.2 84.2 -25.3Z" stroke="#4495FA" fill="none" stroke-width="20"></path></g><g transform="translate(486 851)"><path d="M41.5 -12.3C47.4 4.7 41.5 26.8 26.4 38.2C11.4 49.6 -12.8 50.2 -28 39.1C-43.1 27.9 -49.3 5 -43.1 -12.4C-36.9 -29.7 -18.5 -41.4 -0.3 -41.3C17.8 -41.2 35.6 -29.3 41.5 -12.3Z" stroke="#4495FA" fill="none" stroke-width="20"></path></g><g transform="translate(379 375)"><path d="M94.8 -32.4C106.6 5.6 88.8 51.6 56.2 74.6C23.7 97.6 -23.6 97.5 -55.4 74.8C-87.2 52 -103.6 6.5 -91.8 -31.4C-80 -69.3 -40 -99.6 0.7 -99.9C41.5 -100.1 83 -70.3 94.8 -32.4Z" stroke="#4495FA" fill="none" stroke-width="20"></path></g><g transform="translate(1184 45)"><path d="M69.6 -21.9C79.1 6.6 68 42.5 44.7 58.8C21.4 75 -14.1 71.6 -37.4 54.1C-60.7 36.5 -71.8 4.8 -63.5 -22C-55.2 -48.8 -27.6 -70.8 1.2 -71.2C30 -71.6 60.1 -50.4 69.6 -21.9Z" stroke="#4495FA" fill="none" stroke-width="20"></path></g><g transform="translate(578 189)"><path d="M48.1 -16.8C53.2 0.3 42.1 21.5 25.1 33.6C8.1 45.7 -14.8 48.8 -28.5 39C-42.1 29.1 -46.6 6.3 -40.3 -12.4C-34 -31 -17 -45.5 2.2 -46.2C21.5 -46.9 42.9 -33.9 48.1 -16.8Z" stroke="#4495FA" fill="none" stroke-width="20"></path></g><g transform="translate(1108 801)"><path d="M91 -27.9C103.2 7.9 88.1 54.1 57.4 75.6C26.7 97.1 -19.5 93.8 -49.6 71.3C-79.6 48.8 -93.4 7 -82.4 -27.2C-71.5 -61.3 -35.7 -87.8 1.8 -88.4C39.4 -89 78.8 -63.7 91 -27.9Z" stroke="#4495FA" fill="none" stroke-width="20"></path></g><g transform="translate(904 497)"><path d="M50.9 -17.5C57.4 3.5 48.2 28.6 30 42C11.8 55.4 -15.5 57.1 -33.7 44.3C-51.9 31.6 -61 4.4 -53.9 -17.4C-46.8 -39.3 -23.4 -55.8 -0.6 -55.6C22.2 -55.4 44.4 -38.5 50.9 -17.5Z" stroke="#4495FA" fill="none" stroke-width="20"></path></g><g transform="translate(868 30)"><path d="M62.5 -18.9C70.5 4.3 59.2 35.2 38.3 49.8C17.3 64.3 -13.5 62.6 -35.6 47C-57.7 31.4 -71.1 1.9 -63.8 -20.5C-56.4 -42.9 -28.2 -58.2 -0.5 -58.1C27.2 -57.9 54.4 -42.2 62.5 -18.9Z" stroke="#4495FA" fill="none" stroke-width="20"></path></g><g transform="translate(818 873)"><path d="M67.9 -23.8C76 2.7 62.2 34.6 38.6 51.4C15 68.1 -18.3 69.6 -39.2 54.3C-60.2 39.1 -68.6 7 -60 -20.3C-51.4 -47.6 -25.7 -70.1 2.1 -70.8C29.9 -71.5 59.9 -50.3 67.9 -23.8Z" stroke="#4495FA" fill="none" stroke-width="20"></path></g><g transform="translate(171 73)"><path d="M72.5 -19.9C83.6 10.6 75.1 51.1 50.7 68.5C26.4 85.9 -13.8 80.1 -39.1 60.2C-64.4 40.4 -74.8 6.3 -65.8 -21.3C-56.8 -49 -28.4 -70.4 1.1 -70.7C30.7 -71.1 61.4 -50.5 72.5 -19.9Z" stroke="#4495FA" fill="none" stroke-width="20"></path></g><g transform="translate(1393 794)"><path d="M88.1 -29.7C97.9 1.4 78.2 41 49.2 60.4C20.1 79.8 -18.4 79 -46.1 59.7C-73.9 40.4 -90.9 2.7 -81.4 -28C-72 -58.7 -36 -82.3 1.6 -82.8C39.2 -83.4 78.4 -60.8 88.1 -29.7Z" stroke="#4495FA" fill="none" stroke-width="20"></path></g><g transform="translate(627 572)"><path d="M89.1 -27.8C100.1 5 83.1 48 51.9 70.5C20.7 92.9 -24.8 94.8 -55.5 73.2C-86.2 51.7 -102.1 6.7 -90.4 -27.1C-78.7 -60.9 -39.3 -83.4 -0.2 -83.3C39 -83.3 78.1 -60.7 89.1 -27.8Z" stroke="#4495FA" fill="none" stroke-width="20"></path></g></g></svg>