<svg id="visual" viewBox="0 0 1400 900" width="1400" height="900" xmlns="http://www.w3.org/2000/svg" xmlns:xlink="http://www.w3.org/1999/xlink" version="1.1"><path d="M821 900L802.7 886.3C784.3 872.7 747.7 845.3 697.2 818C646.7 790.7 582.3 763.3 624.5 736.2C666.7 709 815.3 682 882 654.8C948.7 627.7 933.3 600.3 862.2 573C791 545.7 664 518.3 659.3 491C654.7 463.7 772.3 436.3 821.2 409C870 381.7 850 354.3 808 327C766 299.7 702 272.3 658.3 245.2C614.7 218 591.3 191 554.3 163.8C517.3 136.7 466.7 109.3 440.8 82C415 54.7 414 27.3 413.5 13.7L413 0L1400 0L1400 13.7C1400 27.3 1400 54.7 1400 82C1400 109.3 1400 136.7 1400 163.8C1400 191 1400 218 1400 245.2C1400 272.3 1400 299.7 1400 327C1400 354.3 1400 381.7 1400 409C1400 436.3 1400 463.7 1400 491C1400 518.3 1400 545.7 1400 573C1400 600.3 1400 627.7 1400 654.8C1400 682 1400 709 1400 736.2C1400 763.3 1400 790.7 1400 818C1400 845.3 1400 872.7 1400 886.3L1400 900Z" fill="#020911"></path><path d="M819 900L799.7 886.3C780.3 872.7 741.7 845.3 741 818C740.3 790.7 777.7 763.3 778.7 736.2C779.7 709 744.3 682 735.3 654.8C726.3 627.7 743.7 600.3 768.8 573C794 545.7 827 518.3 866.2 491C905.3 463.7 950.7 436.3 936.8 409C923 381.7 850 354.3 850.8 327C851.7 299.7 926.3 272.3 933 245.2C939.7 218 878.3 191 804.2 163.8C730 136.7 643 109.3 611.7 82C580.3 54.7 604.7 27.3 616.8 13.7L629 0L1400 0L1400 13.7C1400 27.3 1400 54.7 1400 82C1400 109.3 1400 136.7 1400 163.8C1400 191 1400 218 1400 245.2C1400 272.3 1400 299.7 1400 327C1400 354.3 1400 381.7 1400 409C1400 436.3 1400 463.7 1400 491C1400 518.3 1400 545.7 1400 573C1400 600.3 1400 627.7 1400 654.8C1400 682 1400 709 1400 736.2C1400 763.3 1400 790.7 1400 818C1400 845.3 1400 872.7 1400 886.3L1400 900Z" fill="#0b1d2d"></path><path d="M670 900L677.3 886.3C684.7 872.7 699.3 845.3 733.3 818C767.3 790.7 820.7 763.3 851.8 736.2C883 709 892 682 924.5 654.8C957 627.7 1013 600.3 1031.3 573C1049.7 545.7 1030.3 518.3 1017.8 491C1005.3 463.7 999.7 436.3 1012.8 409C1026 381.7 1058 354.3 1041.5 327C1025 299.7 960 272.3 918.3 245.2C876.7 218 858.3 191 854.3 163.8C850.3 136.7 860.7 109.3 838.3 82C816 54.7 761 27.3 733.5 13.7L706 0L1400 0L1400 13.7C1400 27.3 1400 54.7 1400 82C1400 109.3 1400 136.7 1400 163.8C1400 191 1400 218 1400 245.2C1400 272.3 1400 299.7 1400 327C1400 354.3 1400 381.7 1400 409C1400 436.3 1400 463.7 1400 491C1400 518.3 1400 545.7 1400 573C1400 600.3 1400 627.7 1400 654.8C1400 682 1400 709 1400 736.2C1400 763.3 1400 790.7 1400 818C1400 845.3 1400 872.7 1400 886.3L1400 900Z" fill="#092e4c"></path><path d="M1064 900L1051.8 886.3C1039.7 872.7 1015.3 845.3 965 818C914.7 790.7 838.3 763.3 861.2 736.2C884 709 1006 682 1048.3 654.8C1090.7 627.7 1053.3 600.3 998.7 573C944 545.7 872 518.3 831.8 491C791.7 463.7 783.3 436.3 801.7 409C820 381.7 865 354.3 914.8 327C964.7 299.7 1019.3 272.3 1054.3 245.2C1089.3 218 1104.7 191 1083.7 163.8C1062.7 136.7 1005.3 109.3 989.7 82C974 54.7 1000 27.3 1013 13.7L1026 0L1400 0L1400 13.7C1400 27.3 1400 54.7 1400 82C1400 109.3 1400 136.7 1400 163.8C1400 191 1400 218 1400 245.2C1400 272.3 1400 299.7 1400 327C1400 354.3 1400 381.7 1400 409C1400 436.3 1400 463.7 1400 491C1400 518.3 1400 545.7 1400 573C1400 600.3 1400 627.7 1400 654.8C1400 682 1400 709 1400 736.2C1400 763.3 1400 790.7 1400 818C1400 845.3 1400 872.7 1400 886.3L1400 900Z" fill="#03406d"></path><path d="M899 900L919 886.3C939 872.7 979 845.3 996.3 818C1013.7 790.7 1008.3 763.3 1027.7 736.2C1047 709 1091 682 1113.8 654.8C1136.7 627.7 1138.3 600.3 1091.8 573C1045.3 545.7 950.7 518.3 913.8 491C877 463.7 898 436.3 932 409C966 381.7 1013 354.3 1027.7 327C1042.3 299.7 1024.7 272.3 996.7 245.2C968.7 218 930.3 191 935.3 163.8C940.3 136.7 988.7 109.3 1005.7 82C1022.7 54.7 1008.3 27.3 1001.2 13.7L994 0L1400 0L1400 13.7C1400 27.3 1400 54.7 1400 82C1400 109.3 1400 136.7 1400 163.8C1400 191 1400 218 1400 245.2C1400 272.3 1400 299.7 1400 327C1400 354.3 1400 381.7 1400 409C1400 436.3 1400 463.7 1400 491C1400 518.3 1400 545.7 1400 573C1400 600.3 1400 627.7 1400 654.8C1400 682 1400 709 1400 736.2C1400 763.3 1400 790.7 1400 818C1400 845.3 1400 872.7 1400 886.3L1400 900Z" fill="#005290"></path><path d="M1240 900L1215.7 886.3C1191.3 872.7 1142.7 845.3 1113.7 818C1084.7 790.7 1075.3 763.3 1099.2 736.2C1123 709 1180 682 1193.3 654.8C1206.7 627.7 1176.3 600.3 1144.3 573C1112.3 545.7 1078.7 518.3 1066.7 491C1054.7 463.7 1064.3 436.3 1073.5 409C1082.7 381.7 1091.3 354.3 1119.3 327C1147.3 299.7 1194.7 272.3 1207.7 245.2C1220.7 218 1199.3 191 1201.5 163.8C1203.7 136.7 1229.3 109.3 1220.5 82C1211.7 54.7 1168.3 27.3 1146.7 13.7L1125 0L1400 0L1400 13.7C1400 27.3 1400 54.7 1400 82C1400 109.3 1400 136.7 1400 163.8C1400 191 1400 218 1400 245.2C1400 272.3 1400 299.7 1400 327C1400 354.3 1400 381.7 1400 409C1400 436.3 1400 463.7 1400 491C1400 518.3 1400 545.7 1400 573C1400 600.3 1400 627.7 1400 654.8C1400 682 1400 709 1400 736.2C1400 763.3 1400 790.7 1400 818C1400 845.3 1400 872.7 1400 886.3L1400 900Z" fill="#0065b4"></path><path d="M1081 900L1093 886.3C1105 872.7 1129 845.3 1146.2 818C1163.3 790.7 1173.7 763.3 1187.2 736.2C1200.7 709 1217.3 682 1211.7 654.8C1206 627.7 1178 600.3 1153 573C1128 545.7 1106 518.3 1109 491C1112 463.7 1140 436.3 1173 409C1206 381.7 1244 354.3 1248.8 327C1253.7 299.7 1225.3 272.3 1197 245.2C1168.7 218 1140.3 191 1147.2 163.8C1154 136.7 1196 109.3 1202.2 82C1208.3 54.7 1178.7 27.3 1163.8 13.7L1149 0L1400 0L1400 13.7C1400 27.3 1400 54.7 1400 82C1400 109.3 1400 136.7 1400 163.8C1400 191 1400 218 1400 245.2C1400 272.3 1400 299.7 1400 327C1400 354.3 1400 381.7 1400 409C1400 436.3 1400 463.7 1400 491C1400 518.3 1400 545.7 1400 573C1400 600.3 1400 627.7 1400 654.8C1400 682 1400 709 1400 736.2C1400 763.3 1400 790.7 1400 818C1400 845.3 1400 872.7 1400 886.3L1400 900Z" fill="#0078d9"></path><path d="M1337 900L1313.5 886.3C1290 872.7 1243 845.3 1246.3 818C1249.7 790.7 1303.3 763.3 1317.2 736.2C1331 709 1305 682 1295 654.8C1285 627.7 1291 600.3 1295.7 573C1300.3 545.7 1303.7 518.3 1307.7 491C1311.7 463.7 1316.3 436.3 1306.2 409C1296 381.7 1271 354.3 1260.2 327C1249.3 299.7 1252.7 272.3 1268 245.2C1283.3 218 1310.7 191 1303 163.8C1295.3 136.7 1252.7 109.3 1253.2 82C1253.7 54.7 1297.3 27.3 1319.2 13.7L1341 0L1400 0L1400 13.7C1400 27.3 1400 54.7 1400 82C1400 109.3 1400 136.7 1400 163.8C1400 191 1400 218 1400 245.2C1400 272.3 1400 299.7 1400 327C1400 354.3 1400 381.7 1400 409C1400 436.3 1400 463.7 1400 491C1400 518.3 1400 545.7 1400 573C1400 600.3 1400 627.7 1400 654.8C1400 682 1400 709 1400 736.2C1400 763.3 1400 790.7 1400 818C1400 845.3 1400 872.7 1400 886.3L1400 900Z" fill="#008bff"></path></svg>