<svg id="visual" viewBox="0 0 1400 900" width="1400" height="900" xmlns="http://www.w3.org/2000/svg" xmlns:xlink="http://www.w3.org/1999/xlink" version="1.1"><g stroke-width="1" stroke-linejoin="bevel"><path d="M763.8 420L755.8 323L613.2 331Z" fill="#15384f" stroke="#15384f"></path><path d="M613.2 331L589.2 477L763.8 420Z" fill="#15384f" stroke="#15384f"></path><path d="M611.2 156L482.7 290L613.2 331Z" fill="#277297" stroke="#277297"></path><path d="M613.2 331L482.7 290L589.2 477Z" fill="#277297" stroke="#277297"></path><path d="M755.8 323L611.2 156L613.2 331Z" fill="#277297" stroke="#277297"></path><path d="M467.7 580L619.2 610L589.2 477Z" fill="#277297" stroke="#277297"></path><path d="M589.2 477L619.2 610L763.8 420Z" fill="#0c2435" stroke="#0c2435"></path><path d="M807.8 598L921.3 468L763.8 420Z" fill="#081a28" stroke="#081a28"></path><path d="M763.8 420L921.3 468L755.8 323Z" fill="#205a7a" stroke="#205a7a"></path><path d="M755.8 323L803.8 136L611.2 156Z" fill="#205a7a" stroke="#205a7a"></path><path d="M619.2 610L807.8 598L763.8 420Z" fill="#081a28" stroke="#081a28"></path><path d="M482.7 290L449.7 484L589.2 477Z" fill="#00101c" stroke="#00101c"></path><path d="M949.3 273L803.8 136L755.8 323Z" fill="#205a7a" stroke="#205a7a"></path><path d="M921.3 468L949.3 273L755.8 323Z" fill="#19435d" stroke="#19435d"></path><path d="M598.2 0L494.7 161L611.2 156Z" fill="#00101c" stroke="#00101c"></path><path d="M611.2 156L494.7 161L482.7 290Z" fill="#277297" stroke="#277297"></path><path d="M482.7 290L346.1 318L449.7 484Z" fill="#277297" stroke="#277297"></path><path d="M449.7 484L467.7 580L589.2 477Z" fill="#0c2435" stroke="#0c2435"></path><path d="M949.3 273L925.3 167L803.8 136Z" fill="#112e42" stroke="#112e42"></path><path d="M330.1 172L346.1 318L482.7 290Z" fill="#246688" stroke="#246688"></path><path d="M449.7 484L313.1 638L467.7 580Z" fill="#1d4e6b" stroke="#1d4e6b"></path><path d="M807.8 598L919.3 638L921.3 468Z" fill="#1d4e6b" stroke="#1d4e6b"></path><path d="M1102.9 430L1073.9 263L949.3 273Z" fill="#0c2435" stroke="#0c2435"></path><path d="M907.3 754L919.3 638L807.8 598Z" fill="#277297" stroke="#277297"></path><path d="M439.7 712L613.2 733L619.2 610Z" fill="#112e42" stroke="#112e42"></path><path d="M619.2 610L779.8 765L807.8 598Z" fill="#297ea6" stroke="#297ea6"></path><path d="M346.1 318L317.1 441L449.7 484Z" fill="#00101c" stroke="#00101c"></path><path d="M467.7 580L439.7 712L619.2 610Z" fill="#0c2435" stroke="#0c2435"></path><path d="M784.8 0L598.2 0L611.2 156Z" fill="#297ea6" stroke="#297ea6"></path><path d="M494.7 161L330.1 172L482.7 290Z" fill="#205a7a" stroke="#205a7a"></path><path d="M784.8 0L611.2 156L803.8 136Z" fill="#297ea6" stroke="#297ea6"></path><path d="M953.3 0L784.8 0L803.8 136Z" fill="#277297" stroke="#277297"></path><path d="M613.2 733L779.8 765L619.2 610Z" fill="#081a28" stroke="#081a28"></path><path d="M949.3 273L1073.9 263L925.3 167Z" fill="#00101c" stroke="#00101c"></path><path d="M925.3 167L953.3 0L803.8 136Z" fill="#19435d" stroke="#19435d"></path><path d="M1102.9 430L949.3 273L921.3 468Z" fill="#081a28" stroke="#081a28"></path><path d="M479.7 0L330.1 172L494.7 161Z" fill="#246688" stroke="#246688"></path><path d="M145.6 439L187.6 586L317.1 441Z" fill="#15384f" stroke="#15384f"></path><path d="M313.1 638L439.7 712L467.7 580Z" fill="#00101c" stroke="#00101c"></path><path d="M613.2 733L630.2 900L779.8 765Z" fill="#205a7a" stroke="#205a7a"></path><path d="M1064.9 603L1102.9 430L921.3 468Z" fill="#15384f" stroke="#15384f"></path><path d="M598.2 0L479.7 0L494.7 161Z" fill="#0c2435" stroke="#0c2435"></path><path d="M779.8 765L907.3 754L807.8 598Z" fill="#277297" stroke="#277297"></path><path d="M919.3 638L1064.9 603L921.3 468Z" fill="#297ea6" stroke="#297ea6"></path><path d="M1058.9 768L1064.9 603L919.3 638Z" fill="#0c2435" stroke="#0c2435"></path><path d="M317.1 441L313.1 638L449.7 484Z" fill="#277297" stroke="#277297"></path><path d="M1101.9 158L953.3 0L925.3 167Z" fill="#1d4e6b" stroke="#1d4e6b"></path><path d="M1215.4 181L1101.9 158L1073.9 263Z" fill="#19435d" stroke="#19435d"></path><path d="M1073.9 263L1101.9 158L925.3 167Z" fill="#1d4e6b" stroke="#1d4e6b"></path><path d="M313.1 638L336.1 739L439.7 712Z" fill="#205a7a" stroke="#205a7a"></path><path d="M504.7 900L630.2 900L613.2 733Z" fill="#297ea6" stroke="#297ea6"></path><path d="M504.7 900L613.2 733L439.7 712Z" fill="#297ea6" stroke="#297ea6"></path><path d="M779.8 765L755.8 900L907.3 754Z" fill="#081a28" stroke="#081a28"></path><path d="M630.2 900L755.8 900L779.8 765Z" fill="#19435d" stroke="#19435d"></path><path d="M907.3 754L1058.9 768L919.3 638Z" fill="#0c2435" stroke="#0c2435"></path><path d="M958.3 900L1058.9 768L907.3 754Z" fill="#0c2435" stroke="#0c2435"></path><path d="M1210.4 631L1226.4 424L1102.9 430Z" fill="#00101c" stroke="#00101c"></path><path d="M1210.4 631L1102.9 430L1064.9 603Z" fill="#277297" stroke="#277297"></path><path d="M1102.9 430L1226.4 424L1073.9 263Z" fill="#205a7a" stroke="#205a7a"></path><path d="M317.1 441L187.6 586L313.1 638Z" fill="#1d4e6b" stroke="#1d4e6b"></path><path d="M313.1 638L158.6 726L336.1 739Z" fill="#297ea6" stroke="#297ea6"></path><path d="M145.6 439L317.1 441L129.6 327Z" fill="#112e42" stroke="#112e42"></path><path d="M129.6 327L317.1 441L346.1 318Z" fill="#297ea6" stroke="#297ea6"></path><path d="M1220.4 0L1081.9 0L1101.9 158Z" fill="#1d4e6b" stroke="#1d4e6b"></path><path d="M1101.9 158L1081.9 0L953.3 0Z" fill="#0c2435" stroke="#0c2435"></path><path d="M479.7 0L289.1 0L330.1 172Z" fill="#00101c" stroke="#00101c"></path><path d="M155.6 170L129.6 327L346.1 318Z" fill="#00101c" stroke="#00101c"></path><path d="M336.1 739L504.7 900L439.7 712Z" fill="#277297" stroke="#277297"></path><path d="M155.6 170L346.1 318L330.1 172Z" fill="#297ea6" stroke="#297ea6"></path><path d="M1283.4 285L1215.4 181L1073.9 263Z" fill="#277297" stroke="#277297"></path><path d="M289.1 0L155.6 170L330.1 172Z" fill="#1d4e6b" stroke="#1d4e6b"></path><path d="M1058.9 768L1210.4 631L1064.9 603Z" fill="#112e42" stroke="#112e42"></path><path d="M755.8 900L958.3 900L907.3 754Z" fill="#297ea6" stroke="#297ea6"></path><path d="M1058.9 768L1242.4 739L1210.4 631Z" fill="#112e42" stroke="#112e42"></path><path d="M1400 434L1283.4 285L1226.4 424Z" fill="#297ea6" stroke="#297ea6"></path><path d="M1226.4 424L1283.4 285L1073.9 263Z" fill="#081a28" stroke="#081a28"></path><path d="M289.1 0L179.6 0L155.6 170Z" fill="#297ea6" stroke="#297ea6"></path><path d="M0 267L0 430L129.6 327Z" fill="#0c2435" stroke="#0c2435"></path><path d="M0 612L187.6 586L145.6 439Z" fill="#1d4e6b" stroke="#1d4e6b"></path><path d="M0 612L158.6 726L187.6 586Z" fill="#112e42" stroke="#112e42"></path><path d="M187.6 586L158.6 726L313.1 638Z" fill="#15384f" stroke="#15384f"></path><path d="M336.1 739L308.1 900L504.7 900Z" fill="#297ea6" stroke="#297ea6"></path><path d="M158.6 726L308.1 900L336.1 739Z" fill="#277297" stroke="#277297"></path><path d="M958.3 900L1076.9 900L1058.9 768Z" fill="#1d4e6b" stroke="#1d4e6b"></path><path d="M1400 178L1220.4 0L1215.4 181Z" fill="#00101c" stroke="#00101c"></path><path d="M1215.4 181L1220.4 0L1101.9 158Z" fill="#0c2435" stroke="#0c2435"></path><path d="M1076.9 900L1242.4 739L1058.9 768Z" fill="#15384f" stroke="#15384f"></path><path d="M1400 563L1400 434L1226.4 424Z" fill="#297ea6" stroke="#297ea6"></path><path d="M129.6 327L0 430L145.6 439Z" fill="#205a7a" stroke="#205a7a"></path><path d="M0 267L129.6 327L155.6 170Z" fill="#15384f" stroke="#15384f"></path><path d="M0 135L0 267L155.6 170Z" fill="#19435d" stroke="#19435d"></path><path d="M1400 563L1226.4 424L1210.4 631Z" fill="#1d4e6b" stroke="#1d4e6b"></path><path d="M1283.4 285L1400 178L1215.4 181Z" fill="#15384f" stroke="#15384f"></path><path d="M1400 434L1400 306L1283.4 285Z" fill="#277297" stroke="#277297"></path><path d="M0 430L0 612L145.6 439Z" fill="#19435d" stroke="#19435d"></path><path d="M158.6 726L142.6 900L308.1 900Z" fill="#297ea6" stroke="#297ea6"></path><path d="M179.6 0L0 135L155.6 170Z" fill="#00101c" stroke="#00101c"></path><path d="M1242.4 739L1400 563L1210.4 631Z" fill="#246688" stroke="#246688"></path><path d="M1400 306L1400 178L1283.4 285Z" fill="#15384f" stroke="#15384f"></path><path d="M0 762L142.6 900L158.6 726Z" fill="#1d4e6b" stroke="#1d4e6b"></path><path d="M1076.9 900L1271.4 900L1242.4 739Z" fill="#0c2435" stroke="#0c2435"></path><path d="M1242.4 739L1400 755L1400 563Z" fill="#0c2435" stroke="#0c2435"></path><path d="M179.6 0L0 0L0 135Z" fill="#19435d" stroke="#19435d"></path><path d="M0 612L0 762L158.6 726Z" fill="#1d4e6b" stroke="#1d4e6b"></path><path d="M1400 178L1400 0L1220.4 0Z" fill="#19435d" stroke="#19435d"></path><path d="M1271.4 900L1400 755L1242.4 739Z" fill="#0c2435" stroke="#0c2435"></path><path d="M0 762L0 900L142.6 900Z" fill="#297ea6" stroke="#297ea6"></path><path d="M1271.4 900L1400 900L1400 755Z" fill="#112e42" stroke="#112e42"></path></g></svg>